<?xml version="1.0" encoding="iso-8859-1"?>
<!-- Generator: Adobe Illustrator 19.0.0, SVG Export Plug-In . SVG Version: 6.00 Build 0)  -->
<svg version="1.1" id="Layer_1" xmlns="http://www.w3.org/2000/svg" xmlns:xlink="http://www.w3.org/1999/xlink" x="0px" y="0px"
	 viewBox="0 0 512 512" style="enable-background:new 0 0 512 512;" xml:space="preserve">
<g>
	<g>
		<path d="M445.63,151.704h-28.746C411.956,67.225,341.692,0,256,0S100.044,67.225,95.116,151.704H66.37
			c-5.236,0-9.481,4.245-9.481,9.482v47.407c0,5.236,4.245,9.482,9.481,9.482H86.74l46.121,285.954
			c0.741,4.595,4.708,7.972,9.361,7.972h227.556c4.653,0,8.62-3.377,9.361-7.972l46.121-285.954h20.369
			c5.236,0,9.481-4.245,9.481-9.482v-47.407C455.111,155.949,450.866,151.704,445.63,151.704z M256,18.963
			c75.232,0,136.971,58.728,141.871,132.741H114.129C119.029,77.691,180.768,18.963,256,18.963z M361.704,493.037H150.296
			l-44.347-274.963h300.102L361.704,493.037z M436.148,199.111h-18.963H94.815H75.852v-28.444h360.296V199.111z"/>
	</g>
</g>
<g>
</g>
<g>
</g>
<g>
</g>
<g>
</g>
<g>
</g>
<g>
</g>
<g>
</g>
<g>
</g>
<g>
</g>
<g>
</g>
<g>
</g>
<g>
</g>
<g>
</g>
<g>
</g>
<g>
</g>
</svg>
