<?xml version="1.0" encoding="UTF-8" standalone="no"?>
<svg
   xmlns:dc="http://purl.org/dc/elements/1.1/"
   xmlns:cc="http://creativecommons.org/ns#"
   xmlns:rdf="http://www.w3.org/1999/02/22-rdf-syntax-ns#"
   xmlns:svg="http://www.w3.org/2000/svg"
   xmlns="http://www.w3.org/2000/svg"
   xmlns:sodipodi="http://sodipodi.sourceforge.net/DTD/sodipodi-0.dtd"
   xmlns:inkscape="http://www.inkscape.org/namespaces/inkscape"
   height="631.99847"
   viewBox="-40 0 473.99886 474.00033"
   width="631.99847"
   version="1.1"
   id="svg3795"
   sodipodi:docname="delete_hover.svg"
   inkscape:version="0.92.4 (5da689c313, 2019-01-14)"
   inkscape:export-filename="/home/zahalka/sw/tetris/tetris_app/ui/static/ui/delete.png"
   inkscape:export-xdpi="101.6"
   inkscape:export-ydpi="101.6">
  <metadata
     id="metadata3801">
    <rdf:RDF>
      <cc:Work
         rdf:about="">
        <dc:format>image/svg+xml</dc:format>
        <dc:type
           rdf:resource="http://purl.org/dc/dcmitype/StillImage" />
        <dc:title></dc:title>
      </cc:Work>
    </rdf:RDF>
  </metadata>
  <defs
     id="defs3799" />
  <sodipodi:namedview
     pagecolor="#ffffff"
     bordercolor="#666666"
     borderopacity="1"
     objecttolerance="10"
     gridtolerance="10"
     guidetolerance="10"
     inkscape:pageopacity="1"
     inkscape:pageshadow="2"
     inkscape:window-width="2490"
     inkscape:window-height="1376"
     id="namedview3797"
     showgrid="false"
     units="px"
     inkscape:zoom="0.41451991"
     inkscape:cx="284.66667"
     inkscape:cy="284.66667"
     inkscape:window-x="70"
     inkscape:window-y="27"
     inkscape:window-maximized="1"
     inkscape:current-layer="svg3795" />
  <g
     id="g4350"
     transform="translate(23.600994,-23.498208)"
     style="fill:#181818;fill-opacity:1">
    <path
       inkscape:connector-curvature="0"
       id="path3787"
       d="m 232.39844,201.70215 c -5.52344,0 -10,4.47657 -10,10 v 189 c 0,5.51954 4.47656,10 10,10 5.52343,0 10,-4.48046 10,-10 v -189 c 0,-5.52343 -4.47657,-10 -10,-10 z m 0,0"
       style="fill:#181818;fill-opacity:1" />
    <path
       inkscape:connector-curvature="0"
       id="path3789"
       d="m 114.39844,201.70215 c -5.52344,0 -10,4.47657 -10,10 v 189 c 0,5.51954 4.47656,10 10,10 5.52344,0 10,-4.48046 10,-10 v -189 c 0,-5.52343 -4.47656,-10 -10,-10 z m 0,0"
       style="fill:#181818;fill-opacity:1" />
    <path
       inkscape:connector-curvature="0"
       id="path3791"
       d="m 28.398438,174.12012 v 246.37891 c 0,14.5625 5.339843,28.23828 14.667968,38.05078 9.285156,9.83984 22.207032,15.42578 35.730469,15.44922 H 268 c 13.52734,-0.0234 26.44922,-5.60938 35.73047,-15.44922 9.32812,-9.8125 14.66797,-23.48828 14.66797,-38.05078 V 174.12012 c 18.54297,-4.92187 30.55859,-22.83593 28.07812,-41.86328 -2.48437,-19.02344 -18.6914,-33.253905 -37.8789,-33.257811 h -51.19922 v -12.5 c 0.0586,-10.511719 -4.09766,-20.605469 -11.53907,-28.03125 -7.4414,-7.421875 -17.55078,-11.554688 -28.0625,-11.46875 H 129 c -10.51172,-0.08594 -20.62109,4.046875 -28.0625,11.46875 -7.441406,7.425781 -11.597656,17.519531 -11.539062,28.03125 v 12.5 H 38.199219 c -19.1875,0.0039 -35.394531,14.234371 -37.878907,33.257811 -2.480468,19.02735 9.535157,36.94141 28.078126,41.86328 z M 268,453.99903 H 78.796875 c -17.097656,0 -30.398437,-14.6875 -30.398437,-33.5 v -245.5 H 298.39844 v 245.5 c 0,18.8125 -13.30078,33.5 -30.39844,33.5 z M 109.39844,86.499029 c -0.0664,-5.207031 1.98047,-10.21875 5.67578,-13.894531 3.69141,-3.675781 8.71484,-5.695313 13.92578,-5.605469 h 88.79687 c 5.21094,-0.08984 10.23438,1.929688 13.92579,5.605469 3.69531,3.671875 5.74218,8.6875 5.67578,13.894531 v 12.5 h -128 z M 38.199219,118.99903 H 308.59766 c 9.9414,0 18,8.05859 18,18 0,9.9414 -8.0586,18 -18,18 H 38.199219 c -9.941407,0 -18,-8.0586 -18,-18 0,-9.94141 8.058593,-18 18,-18 z m 0,0"
       style="fill:#181818;fill-opacity:1" />
    <path
       inkscape:connector-curvature="0"
       id="path3793"
       d="m 173.39844,201.70215 c -5.52344,0 -10,4.47657 -10,10 v 189 c 0,5.51954 4.47656,10 10,10 5.52343,0 10,-4.48046 10,-10 v -189 c 0,-5.52343 -4.47657,-10 -10,-10 z m 0,0"
       style="fill:#181818;fill-opacity:1" />
  </g>
</svg>
