<?xml version="1.0" encoding="UTF-8" standalone="no"?>
<svg
   xmlns:dc="http://purl.org/dc/elements/1.1/"
   xmlns:cc="http://creativecommons.org/ns#"
   xmlns:rdf="http://www.w3.org/1999/02/22-rdf-syntax-ns#"
   xmlns:svg="http://www.w3.org/2000/svg"
   xmlns="http://www.w3.org/2000/svg"
   xmlns:sodipodi="http://sodipodi.sourceforge.net/DTD/sodipodi-0.dtd"
   xmlns:inkscape="http://www.inkscape.org/namespaces/inkscape"
   height="631.99847"
   viewBox="0 -1 474.61695 473.99884"
   width="631.99847"
   version="1.1"
   id="svg3135"
   sodipodi:docname="edit.svg"
   inkscape:version="0.92.4 (5da689c313, 2019-01-14)">
  <metadata
     id="metadata3141">
    <rdf:RDF>
      <cc:Work
         rdf:about="">
        <dc:format>image/svg+xml</dc:format>
        <dc:type
           rdf:resource="http://purl.org/dc/dcmitype/StillImage" />
        <dc:title></dc:title>
      </cc:Work>
    </rdf:RDF>
  </metadata>
  <defs
     id="defs3139" />
  <sodipodi:namedview
     pagecolor="#181818"
     bordercolor="#666666"
     borderopacity="1"
     objecttolerance="10"
     gridtolerance="10"
     guidetolerance="10"
     inkscape:pageopacity="1"
     inkscape:pageshadow="2"
     inkscape:window-width="2490"
     inkscape:window-height="1376"
     id="namedview3137"
     showgrid="false"
     units="px"
     inkscape:zoom="0.44139651"
     inkscape:cx="267.33333"
     inkscape:cy="267.33333"
     inkscape:window-x="70"
     inkscape:window-y="27"
     inkscape:window-maximized="1"
     inkscape:current-layer="svg3135" />
  <g
     id="g3688"
     transform="matrix(0.95760097,0,0,0.95760097,45.058857,-25.528292)"
     style="stroke-width:1.04427636;fill:#ffffff;fill-opacity:1">
    <path
       inkscape:connector-curvature="0"
       id="path3131"
       d="m 370.58984,324.06667 c -5.52343,0 -10,4.47656 -10,10 v 88.78906 c -0.0195,16.5625 -13.4375,29.98437 -30,30 H 50 c -16.5625,-0.0156 -29.980469,-13.4375 -30,-30 V 162.26589 c 0.01953,-16.5586 13.4375,-29.98047 30,-30 h 88.78906 c 5.52344,0 10,-4.47657 10,-10 0,-5.51953 -4.47656,-10 -10,-10 H 50 c -27.601562,0.0312 -49.96875,22.39843 -50,50 v 260.59374 c 0.03125,27.60157 22.398438,49.96875 50,50 h 280.58984 c 27.60157,-0.0312 49.96875,-22.39843 50,-50 v -88.79296 c 0,-5.52344 -4.47656,-10 -10,-10 z m 0,0"
       style="stroke-width:1.04427636;fill:#ffffff;fill-opacity:1" />
    <path
       inkscape:connector-curvature="0"
       id="path3133"
       d="m 376.62891,86.535419 c -17.57422,-17.574219 -46.06641,-17.574219 -63.64063,0 L 134.58203,264.94167 c -1.22266,1.22265 -2.10547,2.73828 -2.56641,4.40234 l -23.46093,84.69922 c -0.96485,3.47265 0.0156,7.1914 2.5625,9.74219 2.55078,2.54687 6.26953,3.52734 9.74218,2.5664 l 84.69922,-23.46484 c 1.66407,-0.46094 3.17969,-1.34375 4.40235,-2.56641 L 388.36328,161.91042 c 17.54688,-17.58594 17.54688,-46.05469 0,-63.640626 z M 156.37109,271.44167 302.38281,125.42604 349.47266,172.51589 203.45703,318.53151 Z m -9.40625,18.875 37.6211,37.625 -52.03907,14.41796 z m 227.25782,-142.54688 -10.60547,10.60547 -47.09375,-47.09375 10.60937,-10.60547 c 9.76172,-9.761715 25.58985,-9.761715 35.35156,0 l 11.73829,11.73438 c 9.74609,9.77344 9.74609,25.58984 0,35.35937 z m 0,0"
       style="stroke-width:1.04427636;fill:#ffffff;fill-opacity:1" />
  </g>
</svg>
