<?xml version="1.0" encoding="UTF-8" standalone="no"?>
<!-- Generator: Adobe Illustrator 19.0.0, SVG Export Plug-In . SVG Version: 6.00 Build 0)  -->

<svg
   xmlns:dc="http://purl.org/dc/elements/1.1/"
   xmlns:cc="http://creativecommons.org/ns#"
   xmlns:rdf="http://www.w3.org/1999/02/22-rdf-syntax-ns#"
   xmlns:svg="http://www.w3.org/2000/svg"
   xmlns="http://www.w3.org/2000/svg"
   xmlns:sodipodi="http://sodipodi.sourceforge.net/DTD/sodipodi-0.dtd"
   xmlns:inkscape="http://www.inkscape.org/namespaces/inkscape"
   version="1.1"
   id="Capa_1"
   x="0px"
   y="0px"
   viewBox="0 0 631.99847 631.99847"
   xml:space="preserve"
   sodipodi:docname="view.svg"
   inkscape:version="0.92.4 (5da689c313, 2019-01-14)"
   inkscape:export-filename="/home/zahalka/sw/tetris/tetris_app/ui/static/ui/view.png"
   inkscape:export-xdpi="4.556973"
   inkscape:export-ydpi="4.556973"
   width="631.99847"
   height="631.99847"><metadata
   id="metadata1152"><rdf:RDF><cc:Work
       rdf:about=""><dc:format>image/svg+xml</dc:format><dc:type
         rdf:resource="http://purl.org/dc/dcmitype/StillImage" /><dc:title></dc:title></cc:Work></rdf:RDF></metadata><defs
   id="defs1150" /><sodipodi:namedview
   pagecolor="#181818"
   bordercolor="#666666"
   borderopacity="1"
   objecttolerance="10"
   gridtolerance="10"
   guidetolerance="10"
   inkscape:pageopacity="0"
   inkscape:pageshadow="2"
   inkscape:window-width="2490"
   inkscape:window-height="1376"
   id="namedview1148"
   showgrid="false"
   inkscape:zoom="0.46093841"
   inkscape:cx="-499.7277"
   inkscape:cy="223.16449"
   inkscape:window-x="70"
   inkscape:window-y="27"
   inkscape:window-maximized="1"
   inkscape:current-layer="Capa_1"
   fit-margin-top="60"
   fit-margin-left="60"
   fit-margin-right="60"
   fit-margin-bottom="60"
   inkscape:pagecheckerboard="true" />

<g
   id="g2328"
   transform="translate(-1.2939453e-5,-92.834723)"><g
     transform="translate(60,152.83446)"
     style="fill:#ffffff;fill-opacity:1"
     id="g1109">
	<g
   style="fill:#ffffff;fill-opacity:1"
   id="g1107">
		<path
   inkscape:connector-curvature="0"
   style="fill:#ffffff;fill-opacity:1"
   id="path1105"
   d="M 508.745,246.041 C 504.171,239.784 395.188,92.835 255.997,92.835 c -139.191,0 -248.179,146.949 -252.748,153.2 -4.332,5.936 -4.332,13.987 0,19.923 4.569,6.257 113.557,153.206 252.748,153.206 139.191,0 248.174,-146.95 252.748,-153.201 4.338,-5.935 4.338,-13.992 0,-19.922 z M 255.997,385.406 c -102.529,0 -191.33,-97.533 -217.617,-129.418 26.253,-31.913 114.868,-129.395 217.617,-129.395 102.524,0 191.319,97.516 217.617,129.418 -26.253,31.912 -114.868,129.395 -217.617,129.395 z" />
	</g>
</g><g
     transform="translate(60,152.83446)"
     style="fill:#ffffff;fill-opacity:1"
     id="g1115">
	<g
   style="fill:#ffffff;fill-opacity:1"
   id="g1113">
		<path
   inkscape:connector-curvature="0"
   style="fill:#ffffff;fill-opacity:1"
   id="path1111"
   d="m 255.997,154.725 c -55.842,0 -101.275,45.433 -101.275,101.275 0,55.842 45.433,101.275 101.275,101.275 55.842,0 101.275,-45.433 101.275,-101.275 0,-55.842 -45.433,-101.275 -101.275,-101.275 z m 0,168.791 c -37.23,0 -67.516,-30.287 -67.516,-67.516 0,-37.229 30.287,-67.516 67.516,-67.516 37.229,0 67.516,30.287 67.516,67.516 0,37.229 -30.286,67.516 -67.516,67.516 z" />
	</g>
</g></g>
<g
   id="g1117"
   transform="translate(60,152.83446)">
</g>
<g
   id="g1119"
   transform="translate(60,152.83446)">
</g>
<g
   id="g1121"
   transform="translate(60,152.83446)">
</g>
<g
   id="g1123"
   transform="translate(60,152.83446)">
</g>
<g
   id="g1125"
   transform="translate(60,152.83446)">
</g>
<g
   id="g1127"
   transform="translate(60,152.83446)">
</g>
<g
   id="g1129"
   transform="translate(60,152.83446)">
</g>
<g
   id="g1131"
   transform="translate(60,152.83446)">
</g>
<g
   id="g1133"
   transform="translate(60,152.83446)">
</g>
<g
   id="g1135"
   transform="translate(60,152.83446)">
</g>
<g
   id="g1137"
   transform="translate(60,152.83446)">
</g>
<g
   id="g1139"
   transform="translate(60,152.83446)">
</g>
<g
   id="g1141"
   transform="translate(60,152.83446)">
</g>
<g
   id="g1143"
   transform="translate(60,152.83446)">
</g>
<g
   id="g1145"
   transform="translate(60,152.83446)">
</g>
</svg>